<svg id="Layer_1" height="512" viewBox="0 0 128 128" width="512" xmlns="http://www.w3.org/2000/svg" data-name="Layer 1">
  <path d="m115.5 96.53v18.88h-103v-18.88a32.525 32.525 0 0 1 32.53-32.53h37.94a32.525 32.525 0 0 1 32.53 32.53z" fill="#6740aa" />
  <path d="m115.5 96.527a32.527 32.527 0 0 0 -32.527-32.527h-37.946c-.7 0-1.388.03-2.074.073l1.8 19.891s9.247 9.195 19.247 9.195 15 5.905 15 22.248h36.5z" fill="#3b237d" />
  <path d="m37.25 22.29h53.5a0 0 0 0 1 0 0v44.781a21.93 21.93 0 0 1 -21.93 21.929h-9.64a21.93 21.93 0 0 1 -21.93-21.93v-44.78a0 0 0 0 1 0 0z" fill="#38ca46" />
  <path d="m83.618 12.5h-39.236a7.132 7.132 0 0 0 -7.132 7.132v10.8h.924l6.226-7.515 6.229 7.518h.606l6.229-7.518 6.236 7.518h.6l6.229-7.518 6.229 7.518h.606l6.236-7.518 6.229 7.518h.924v-10.8a7.132 7.132 0 0 0 -7.135-7.135z" fill="#a55000" />
  <path d="m90.75 67.071v-44.781h-14.173c2.176 4.012 3.756 9.65 3.756 17.57 0 25.473.361 49.14-21.153 49.14h9.64a21.93 21.93 0 0 0 21.93-21.929z" fill="#229a32" />
  <path d="m78.983 28.485 4.617-5.568 6.229 7.518h.924v-10.8a7.132 7.132 0 0 0 -7.135-7.135h-19.618s11.077 1.293 14.983 15.985z" fill="#943100" />
  <path d="m35.55 94.39v21.02h-3.5v-21.02a1.75 1.75 0 0 1 3.5 0z" fill="#3b237d" />
  <path d="m95.95 94.39v21.02h-3.5v-21.02a1.75 1.75 0 0 1 3.5 0z" fill="#6740aa" />
  <path d="m31.828 42.776h5.422v5.422h-5.422z" fill="#e2f2ef" />
  <path d="m27.375 39.86h4.453v11.254h-4.453z" fill="#fdb73c" />
  <path d="m90.75 42.776h5.422v5.422h-5.422z" fill="#c8e2dd" transform="matrix(-1 0 0 -1 186.922 90.973)" />
  <path d="m96.172 39.86h4.453v11.254h-4.453z" fill="#e67b2a" transform="matrix(-1 0 0 -1 196.797 90.973)" />
  <path d="m60.333 45.776h7.333a0 0 0 0 1 0 0v15.024a3.667 3.667 0 0 1 -3.666 3.662 3.667 3.667 0 0 1 -3.667-3.662v-15.024a0 0 0 0 1 0 0z" fill="#229a32" />
  <path d="m46.5 74.491a1.75 1.75 0 0 1 -.607-3.392 58.822 58.822 0 0 1 36.166-.018 1.75 1.75 0 1 1 -1.117 3.319c-17.543-5.9-33.674-.077-33.834-.018a1.746 1.746 0 0 1 -.608.109z" fill="#e2f2ef" />
  <path d="m81.5 44.026h-35a1.75 1.75 0 0 0 0 3.5h3.951c0 .044-.013.086-.013.13a3.031 3.031 0 0 0 6.063 0c0-.045-.011-.086-.013-.13h15.025c0 .044-.013.086-.013.13a3.031 3.031 0 1 0 6.062 0c0-.045-.011-.086-.013-.13h3.951a1.75 1.75 0 0 0 0-3.5z" fill="#112d34" />
  <path d="m63.906 85.2a20.785 20.785 0 0 1 -6.631-1.059 1.75 1.75 0 0 1 1.116-3.317 18.7 18.7 0 0 0 11.172.016 1.75 1.75 0 0 1 1.21 3.284 21.423 21.423 0 0 1 -6.867 1.076z" fill="#229a32" />
  <g fill="#fdb73c">
    <circle cx="64" cy="99.208" r="3.125" />
    <path d="m67.12 114.03a3.021 3.021 0 0 1 -.33 1.38h-5.58a3.021 3.021 0 0 1 -.33-1.38 3.12 3.12 0 1 1 6.24 0z" />
  </g>
</svg>